<svg xmlns="http://www.w3.org/2000/svg" width="34.209" height="34.708" viewBox="0 0 34.209 34.708">
  <g id="noun_notification_1581312" transform="translate(-5.7 -0.86)">
    <path id="Path_6" data-name="Path 6" d="M30.8,22.156a1.1,1.1,0,0,1-1.259-.916l-.914-5.848a12.754,12.754,0,0,0-9.14-10.361A4.918,4.918,0,1,0,9.768,6.526,12.306,12.306,0,0,0,4.195,18.848l.979,6.224a1.11,1.11,0,0,1-.916,1.259A3.8,3.8,0,0,0,1,29.969a3.7,3.7,0,0,0,3.7,3.739,3.787,3.787,0,0,0,.576-.044l3.8-.6a4.893,4.893,0,0,0,9.066-1.426l13.944-2.194a3.7,3.7,0,0,0,2.936-4.828A3.8,3.8,0,0,0,30.8,22.156ZM12.279,5.3A2.467,2.467,0,0,1,14.272,3.53,2.59,2.59,0,0,1,14.66,3.5a2.479,2.479,0,0,1,2.054,1.11h-.059a11.758,11.758,0,0,0-1.379.039,12.535,12.535,0,0,0-1.437.222c-.1.021-.2.051-.3.075-.389.091-.77.2-1.143.326C12.354,5.283,12.316,5.289,12.279,5.3Zm1.056,27.8a2.434,2.434,0,0,1-1.452-.479l3.454-.541A2.467,2.467,0,0,1,13.334,33.1ZM32.56,26.433a1.233,1.233,0,0,1-.863.577L16.84,29.346h0L9.621,30.482h0l-4.724.74a1.219,1.219,0,0,1-1-.284,1.233,1.233,0,0,1-.433-.955,1.338,1.338,0,0,1,1.174-1.216A3.577,3.577,0,0,0,7.61,24.69l-.978-6.224A9.893,9.893,0,0,1,11.622,8.282a.664.664,0,0,0,.063-.025A9.868,9.868,0,0,1,15.5,7.1a8.907,8.907,0,0,1,1.219-.023l.2.01a9.7,9.7,0,0,1,1.252.158h.039a10.25,10.25,0,0,1,7.973,8.523l.92,5.848a3.568,3.568,0,0,0,4.078,2.971,1.338,1.338,0,0,1,1.49.794h0a1.233,1.233,0,0,1-.115,1.047Z" transform="translate(4.701 0)" fill="#707070"/>
  </g>
</svg>
